<svg width="101" height="33" viewBox="0 0 754 256" fill="none" xmlns="http://www.w3.org/2000/svg">
<g id="Frame 2">
<path id="Abida." d="M377.589 185.675C371.379 185.675 365.754 184.145 360.714 181.085C355.764 178.025 351.849 173.615 348.969 167.855C346.089 162.005 344.649 155.12 344.649 147.2C344.649 133.52 347.574 120.875 353.424 109.265C359.274 97.565 367.914 88.205 379.344 81.185C390.774 74.075 404.499 70.52 420.519 70.52C424.659 70.52 429.069 70.835 433.749 71.465C438.519 72.095 442.839 73.04 446.709 74.3C449.229 75.02 450.489 76.82 450.489 79.7C450.489 82.04 449.589 84.245 447.789 86.315C446.079 88.385 444.054 89.42 441.714 89.42C440.994 89.42 440.454 89.375 440.094 89.285C435.414 88.205 431.409 87.44 428.079 86.99C424.749 86.45 421.239 86.18 417.549 86.18C406.119 86.18 396.399 88.97 388.389 94.55C380.379 100.04 374.394 107.33 370.434 116.42C366.474 125.51 364.494 135.32 364.494 145.85C364.494 153.5 365.979 159.44 368.949 163.67C372.009 167.81 375.969 169.88 380.829 169.88C386.319 169.88 391.134 167.63 395.274 163.13C399.414 158.63 403.194 151.34 406.614 141.26C410.034 131.18 413.409 117.5 416.739 100.22C417.279 97.7 418.359 95.99 419.979 95.09C421.599 94.19 423.759 93.74 426.459 93.74C432.849 93.74 436.044 95.81 436.044 99.95C436.044 100.67 435.909 101.57 435.639 102.65C433.299 111.38 431.139 121.055 429.159 131.675C427.269 142.205 426.324 150.215 426.324 155.705C426.324 160.565 427.044 164.12 428.484 166.37C429.924 168.53 432.129 169.61 435.099 169.61C437.979 169.61 440.724 168.665 443.334 166.775C445.944 164.795 449.229 161.465 453.189 156.785C454.269 155.525 455.484 154.895 456.834 154.895C458.004 154.895 458.904 155.435 459.534 156.515C460.254 157.595 460.614 159.08 460.614 160.97C460.614 164.48 459.759 167.27 458.049 169.34C453.639 174.65 449.319 178.7 445.089 181.49C440.859 184.28 435.684 185.675 429.564 185.675C423.264 185.675 418.179 183.875 414.309 180.275C410.439 176.585 408.009 171.41 407.019 164.75C400.359 178.7 390.549 185.675 377.589 185.675ZM521.517 143.555C522.687 143.555 523.587 144.14 524.217 145.31C524.847 146.48 525.162 147.965 525.162 149.765C525.162 152.015 524.847 153.77 524.217 155.03C523.587 156.2 522.597 157.01 521.247 157.46C515.847 159.35 509.907 160.43 503.427 160.7C501.627 168.17 498.207 174.2 493.167 178.79C488.217 183.38 482.727 185.675 476.697 185.675C467.607 185.675 460.992 182.21 456.852 175.28C452.712 168.35 450.642 158.315 450.642 145.175C450.642 133.565 452.082 120.965 454.962 107.375C457.842 93.695 462.027 82.085 467.517 72.545C473.097 62.915 479.712 58.1 487.362 58.1C491.502 58.1 494.832 59.9 497.352 63.5C499.872 67.01 501.132 71.6 501.132 77.27C501.132 84.65 499.737 91.985 496.947 99.275C494.157 106.565 489.522 114.215 483.042 122.225C489.072 122.675 493.977 125.195 497.757 129.785C501.537 134.285 503.787 139.865 504.507 146.525C508.737 146.255 513.777 145.355 519.627 143.825C520.167 143.645 520.797 143.555 521.517 143.555ZM484.257 71.465C482.457 71.465 480.477 74.165 478.317 79.565C476.247 84.875 474.312 92.12 472.512 101.3C470.712 110.48 469.362 120.515 468.462 131.405C474.402 120.515 479.127 110.93 482.637 102.65C486.237 94.28 488.037 86.855 488.037 80.375C488.037 77.495 487.677 75.29 486.957 73.76C486.327 72.23 485.427 71.465 484.257 71.465ZM477.237 171.365C480.027 171.365 482.502 170.195 484.662 167.855C486.822 165.515 488.262 162.14 488.982 157.73C486.192 155.84 484.032 153.365 482.502 150.305C481.062 147.245 480.342 144.005 480.342 140.585C480.342 139.325 480.522 137.615 480.882 135.455H480.477C476.787 135.455 473.682 137.3 471.162 140.99C468.732 144.59 467.517 149.45 467.517 155.57C467.517 160.7 468.462 164.615 470.352 167.315C472.332 170.015 474.627 171.365 477.237 171.365ZM531.19 113.18C527.41 113.18 524.575 112.325 522.685 110.615C520.795 108.815 519.85 106.34 519.85 103.19C519.85 100.04 521.065 97.43 523.495 95.36C526.015 93.2 529.12 92.12 532.81 92.12C536.14 92.12 538.84 92.93 540.91 94.55C542.98 96.17 544.015 98.465 544.015 101.435C544.015 105.035 542.845 107.915 540.505 110.075C538.165 112.145 535.06 113.18 531.19 113.18ZM530.11 185.675C524.26 185.675 519.985 183.605 517.285 179.465C514.675 175.325 513.37 169.835 513.37 162.995C513.37 158.945 513.865 153.77 514.855 147.47C515.935 141.08 517.285 135.14 518.905 129.65C519.715 126.77 520.795 124.79 522.145 123.71C523.495 122.63 525.655 122.09 528.625 122.09C533.215 122.09 535.51 123.62 535.51 126.68C535.51 128.93 534.655 134.15 532.945 142.34C530.785 152.24 529.705 158.945 529.705 162.455C529.705 165.155 530.065 167.225 530.785 168.665C531.505 170.105 532.72 170.825 534.43 170.825C536.05 170.825 538.075 169.7 540.505 167.45C542.935 165.2 546.175 161.645 550.225 156.785C551.305 155.525 552.52 154.895 553.87 154.895C555.04 154.895 555.94 155.435 556.57 156.515C557.29 157.595 557.65 159.08 557.65 160.97C557.65 164.57 556.795 167.36 555.085 169.34C546.175 180.23 537.85 185.675 530.11 185.675ZM623.408 154.895C624.578 154.895 625.478 155.435 626.108 156.515C626.828 157.595 627.188 159.08 627.188 160.97C627.188 164.57 626.333 167.36 624.623 169.34C620.933 173.84 616.883 177.71 612.473 180.95C608.063 184.1 603.698 185.675 599.378 185.675C592.538 185.675 587.318 181.67 583.718 173.66C579.938 178.43 576.608 181.625 573.728 183.245C570.938 184.865 567.653 185.675 563.873 185.675C558.383 185.675 553.838 183.65 550.238 179.6C546.728 175.46 544.973 170.105 544.973 163.535C544.973 156.335 546.503 149.675 549.563 143.555C552.623 137.345 556.808 132.305 562.118 128.435C567.518 124.475 573.548 122.135 580.208 121.415C581.918 103.955 585.158 89.06 589.928 76.73C594.788 64.31 601.133 58.1 608.963 58.1C612.833 58.1 616.028 59.855 618.548 63.365C621.158 66.875 622.463 72.185 622.463 79.295C622.463 89.375 619.988 101.165 615.038 114.665C610.088 128.165 603.473 142.025 595.193 156.245C595.553 161.465 596.318 165.2 597.488 167.45C598.748 169.7 600.323 170.825 602.213 170.825C604.643 170.825 607.118 169.745 609.638 167.585C612.158 165.425 615.533 161.825 619.763 156.785C620.843 155.525 622.058 154.895 623.408 154.895ZM607.478 71.33C605.768 71.33 604.058 74.39 602.348 80.51C600.638 86.54 599.153 94.46 597.893 104.27C596.723 114.08 595.868 124.34 595.328 135.05C605.408 113.09 610.448 95.45 610.448 82.13C610.448 78.71 610.133 76.055 609.503 74.165C608.963 72.275 608.288 71.33 607.478 71.33ZM568.598 172.04C570.308 172.04 572.018 171.365 573.728 170.015C575.438 168.575 577.598 165.965 580.208 162.185C579.308 157.325 578.858 151.88 578.858 145.85C578.858 143.69 578.948 140.18 579.128 135.32C574.178 136.85 570.038 140.18 566.708 145.31C563.468 150.35 561.848 155.975 561.848 162.185C561.848 168.755 564.098 172.04 568.598 172.04ZM630.412 185.675C625.282 185.675 621.097 183.65 617.857 179.6C614.707 175.55 613.132 170.24 613.132 163.67C613.132 156.47 614.797 149.675 618.127 143.285C621.457 136.805 625.867 131.63 631.357 127.76C636.937 123.8 642.832 121.82 649.042 121.82C651.022 121.82 652.327 122.225 652.957 123.035C653.677 123.755 654.262 125.105 654.712 127.085C656.422 126.725 658.312 126.545 660.382 126.545C662.542 126.545 664.207 127.085 665.377 128.165C666.547 129.245 667.132 130.775 667.132 132.755C667.132 134.825 666.682 138.425 665.782 143.555C664.792 149.045 664.027 154.31 663.487 159.35C662.947 164.3 662.677 169.88 662.677 176.09C662.677 179.51 661.957 181.985 660.517 183.515C659.167 184.955 656.917 185.675 653.767 185.675C650.707 185.675 648.412 184.955 646.882 183.515C645.442 181.985 644.722 179.555 644.722 176.225L644.857 174.065C642.067 181.805 637.252 185.675 630.412 185.675ZM635.677 172.04C638.197 172.04 640.492 170.285 642.562 166.775C644.632 163.265 646.477 157.01 648.097 148.01L650.662 134.375C646.972 134.465 643.552 135.905 640.402 138.695C637.252 141.395 634.732 144.995 632.842 149.495C630.952 153.995 630.007 158.765 630.007 163.805C630.007 166.505 630.502 168.575 631.492 170.015C632.572 171.365 633.967 172.04 635.677 172.04ZM686.033 185.675C682.073 185.675 679.058 184.595 676.988 182.435C675.008 180.275 674.018 177.44 674.018 173.93C674.018 169.88 675.143 166.64 677.393 164.21C679.733 161.78 682.973 160.565 687.113 160.565C691.073 160.565 694.043 161.555 696.023 163.535C698.093 165.425 699.128 168.26 699.128 172.04C699.128 176.18 697.958 179.51 695.618 182.03C693.278 184.46 690.083 185.675 686.033 185.675Z" fill="#282828"/>
<g id="favicon" clip-path="url(#clip0_401_11)">
<path id="Vector" d="M204.8 0H51.2C22.923 0 0 22.923 0 51.2V204.8C0 233.077 22.923 256 51.2 256H204.8C233.077 256 256 233.077 256 204.8V51.2C256 22.923 233.077 0 204.8 0Z" fill="#7E74F1"/>
<path id="Vector_2" d="M62.8736 215.347C53.4528 215.347 44.9536 213.026 37.376 208.384C29.7984 203.742 23.8251 197.018 19.456 188.211C15.0869 179.405 12.9024 168.994 12.9024 156.979C12.9024 136.226 17.3397 117.009 26.2144 99.328C35.0891 81.647 48.1963 67.4475 65.536 56.7296C82.8757 46.0118 103.697 40.6528 128 40.6528C134.281 40.6528 141.005 41.1307 148.173 42.0864C155.341 43.0422 161.86 44.4758 167.731 46.3872C171.554 47.4795 173.466 50.2102 173.466 54.5792C173.466 58.1291 172.134 61.4742 169.472 64.6144C166.81 67.7547 163.703 69.3248 160.154 69.3248C159.061 69.3248 158.242 69.2566 157.696 69.12C150.596 67.4816 144.521 66.287 139.469 65.536C134.417 64.7851 129.092 64.4096 123.494 64.4096C106.155 64.4096 91.4091 68.608 79.2576 77.0048C67.1061 85.4016 58.0267 96.495 52.0192 110.285C46.0117 124.075 43.008 138.957 43.008 154.931C43.008 166.537 45.2949 175.514 49.8688 181.862C54.4427 188.211 60.416 191.386 67.7888 191.386C76.1173 191.386 83.4219 187.972 89.7024 181.146C95.9829 174.319 101.717 163.26 106.906 147.968C112.094 132.676 117.214 111.923 122.266 85.7088C123.085 81.8859 124.723 79.2918 127.181 77.9264C129.638 76.5611 132.915 75.8784 137.011 75.8784C146.705 75.8784 151.552 79.0187 151.552 85.2992C151.552 86.3915 151.347 87.7568 150.938 89.3952C147.388 102.639 144.145 117.282 141.21 133.325C138.274 149.367 136.806 161.553 136.806 169.882C136.806 177.254 137.899 182.613 140.083 185.958C142.268 189.303 145.613 190.976 150.118 190.976C154.487 190.976 158.652 189.508 162.611 186.573C166.571 183.637 171.554 178.62 177.562 171.52C179.2 169.609 181.043 168.653 183.091 168.653C184.866 168.653 186.266 169.472 187.29 171.11C188.314 172.749 188.826 175.002 188.826 177.869C188.826 183.194 187.529 187.426 184.934 190.566C178.244 198.622 171.691 204.766 165.274 208.998C158.857 213.231 151.006 215.347 141.722 215.347C132.164 215.347 124.45 212.582 118.579 207.053C112.708 201.523 109.022 193.707 107.52 183.603C97.4165 204.766 82.5344 215.347 62.8736 215.347ZM223.232 215.347C217.225 215.347 212.685 213.709 209.613 210.432C206.541 207.155 205.005 202.854 205.005 197.53C205.005 191.386 206.746 186.47 210.227 182.784C213.709 179.098 218.59 177.254 224.87 177.254C230.878 177.254 235.418 178.722 238.49 181.658C241.562 184.593 243.098 188.928 243.098 194.662C243.098 200.943 241.323 205.961 237.773 209.715C234.223 213.47 229.376 215.347 223.232 215.347Z" fill="#F1F1F1"/>
</g>
</g>
<defs>
<clipPath id="clip0_401_11">
<rect width="256" height="256" fill="white"/>
</clipPath>
</defs>
</svg>
