<svg xmlns="http://www.w3.org/2000/svg" width="256" height="256" viewBox="0 0 100 100"><rect width="100" height="100" rx="20" fill="#282828"></rect><path fill="#fff" d="M84.37 50.91L84.37 50.91L83.89 56.67Q81.68 56.48 79.14 56.48Q76.59 56.48 74.86 56.58L74.86 56.58Q73.52 67.14 73.14 79.52L73.14 79.52L66.42 79.52Q65.84 77.02 65.84 72.90Q65.84 68.77 66.08 65.74Q66.32 62.72 66.70 59.74Q67.09 56.77 67.09 56.29L67.09 56.29Q65.74 56.19 60.75 56.19Q55.76 56.19 53.84 56.38L53.84 56.38Q42.70 71.36 33.30 79.09Q23.89 86.82 14.48 86.82L14.48 86.82Q9.87 86.82 6.75 84.03Q3.63 81.25 3.63 76.64L3.63 76.64Q3.63 67.90 16.93 60.70Q30.22 53.50 51.34 51.01L51.34 51.01Q53.84 47.17 60.66 39.15Q67.47 31.14 74.10 25.18L74.10 25.18Q76.98 18.46 78.66 15.82Q80.34 13.18 81.97 13.18Q83.60 13.18 84.66 14.43Q85.71 15.68 85.71 17.65Q85.71 19.62 83.55 23.41Q81.39 27.20 79.09 35.12Q76.78 43.04 75.92 50.05L75.92 50.05Q80.91 50.05 84.37 50.91ZM35.41 70.98L35.41 70.98Q43.38 63.39 47.41 56.58L47.41 56.58Q31.28 57.54 22.50 62.62Q13.71 67.71 13.71 73.47L13.71 73.47Q13.71 75.97 15.39 77.41Q17.07 78.85 19.86 78.85L19.86 78.85Q27.34 78.85 35.41 70.98ZM68.24 50.05L68.24 50.05Q68.91 46.78 70.02 41.84Q71.12 36.90 71.31 36.03L71.31 36.03Q66.70 40.45 64.88 42.51Q63.06 44.58 58.45 50.43L58.45 50.43Q60.08 50.34 62.43 50.29Q64.78 50.24 66.32 50.14Q67.86 50.05 68.24 50.05ZM89.65 78.94Q88.50 77.79 88.50 76.16Q88.50 74.53 89.65 73.38Q90.80 72.22 92.43 72.22Q94.06 72.22 95.22 73.38Q96.37 74.53 96.37 76.16Q96.37 77.79 95.22 78.94Q94.06 80.10 92.43 80.10Q90.80 80.10 89.65 78.94Z"></path></svg>